<?xml version="1.0" encoding="utf-8"?>
<!-- Generator: Adobe Illustrator 16.0.4, SVG Export Plug-In . SVG Version: 6.00 Build 0)  -->
<!DOCTYPE svg PUBLIC "-//W3C//DTD SVG 1.1//EN" "http://www.w3.org/Graphics/SVG/1.1/DTD/svg11.dtd">
<svg version="1.1" id="Ebene_1" xmlns="http://www.w3.org/2000/svg" xmlns:xlink="http://www.w3.org/1999/xlink" x="0px" y="0px"
	 width="16px" height="16px" viewBox="0 0 16 16" enable-background="new 0 0 16 16" xml:space="preserve">
<g>
	<path fill="#EEE7E2" d="M15.992,4.267c0,0.275-0.097,0.509-0.288,0.702l-7.467,7.466l-1.402,1.402
		c-0.192,0.192-0.426,0.289-0.701,0.289c-0.275,0-0.51-0.097-0.702-0.289L4.03,12.435L0.296,8.701C0.104,8.509,0.008,8.276,0.008,8
		c0-0.275,0.096-0.509,0.288-0.701l1.403-1.403C1.891,5.704,2.125,5.607,2.4,5.607s0.509,0.097,0.701,0.288l3.032,3.043l6.765-6.776
		c0.192-0.191,0.426-0.288,0.701-0.288s0.509,0.097,0.701,0.288l1.403,1.404C15.896,3.759,15.992,3.992,15.992,4.267z"/>
</g>
</svg>
